STARTFONT 2.1
FONT -Bitstream-Terminal-Medium-R-Double Wide--25-180-100-100-C-300-ISO8859-1
SIZE 18 100 100
FONTBOUNDINGBOX 30 25 0 -5

STARTPROPERTIES 26
CHARSET_REGISTRY "ISO8859"
CHARSET_ENCODING "1"
CAP_HEIGHT 15
X_HEIGHT 12
AVERAGE_WIDTH 300
FIGURE_WIDTH 30
SPACING "C"
FONTNAME_REGISTRY ""
FAMILY_NAME "Terminal"
FOUNDRY "Bitstream"
WEIGHT_NAME "Medium"
SETWIDTH_NAME "Double Wide"
SLANT "R"
ADD_STYLE_NAME ""
PIXEL_SIZE 25
POINT_SIZE 180
RESOLUTION_X 100
RESOLUTION_Y 100
CHARSET_COLLECTIONS "ASCII ISO8859-1"
FULL_NAME "Terminal Double Wide"
COPYRIGHT "Copyright (c) 1988 Bitstream, Inc., Copyright 1991 Digital Equipment Corporation.  All Rights Reserved."
WEIGHT 10
QUAD_WIDTH 30
DEFAULT_CHAR 159
FONT_DESCENT 5
FONT_ASCENT 20
ENDPROPERTIES

CHARS 194

STARTCHAR space
ENCODING 32
SWIDTH 1131 0
DWIDTH 30 0
BBX 1 1 0 0
BITMAP
00
ENDCHAR

STARTCHAR exclam
ENCODING 33
SWIDTH 1131 0
DWIDTH 30 0
BBX 7 15 11 0
BITMAP
7C
7C
7C
7C
7C
7C
7C
7C
7C
00
00
7C
FE
FE
7C
ENDCHAR

STARTCHAR quotedbl
ENCODING 34
SWIDTH 1131 0
DWIDTH 30 0
BBX 16 8 7 9
BITMAP
F81F
F81F
F81F
F81F
F81F
F81F
F81F
F81F
ENDCHAR

STARTCHAR numbersign
ENCODING 35
SWIDTH 1131 0
DWIDTH 30 0
BBX 28 18 1 -3
BITMAP
03E07C00
03E07C00
03E07C00
03E07C00
03E07C00
03E07C00
FFFFFFF0
03E07C00
03E07C00
03E07C00
03E07C00
FFFFFFF0
03E07C00
03E07C00
03E07C00
03E07C00
03E07C00
03E07C00
ENDCHAR

STARTCHAR dollar
ENCODING 36
SWIDTH 1131 0
DWIDTH 30 0
BBX 20 21 5 -4
BITMAP
00F000
00F000
00F000
1FFBE0
7C0FE0
F807E0
F803E0
FC0000
7F8000
1FFF80
007FE0
0003E0
0001F0
F801F0
FC01E0
FE03E0
FBFF80
00F000
00F000
00F000
00F000
ENDCHAR

STARTCHAR percent
ENCODING 37
SWIDTH 1131 0
DWIDTH 30 0
BBX 26 15 2 0
BITMAP
1FE00000
38700000
F03C0000
F03C0700
F03C3F00
3870F800
1FE3C000
001E0000
00F1FE00
0FC38700
FF0F03C0
F00F03C0
000F03C0
00038700
0001FE00
ENDCHAR

STARTCHAR ampersand
ENCODING 38
SWIDTH 1131 0
DWIDTH 30 0
BBX 19 15 6 0
BITMAP
0FF780
3E0F80
3C0F80
3C0000
3C0000
0E0000
0F0000
7FCFE0
7BE780
F9F700
F8FF00
F83C00
F81F00
7C3F80
3FE7E0
ENDCHAR

STARTCHAR quoteright
ENCODING 39
SWIDTH 1131 0
DWIDTH 30 0
BBX 9 7 10 11
BITMAP
3F80
3F00
3E00
7E00
7C00
F000
E000
ENDCHAR

STARTCHAR parenleft
ENCODING 40
SWIDTH 1131 0
DWIDTH 30 0
BBX 9 21 11 -4
BITMAP
0180
0380
0700
1E00
3E00
3C00
7C00
7800
F800
F800
F800
F800
F800
7800
7C00
3C00
3E00
1E00
0700
0380
0180
ENDCHAR

STARTCHAR parenright
ENCODING 41
SWIDTH 1131 0
DWIDTH 30 0
BBX 9 21 10 -4
BITMAP
C000
E000
7000
3C00
3E00
1E00
1F00
0F00
0F80
0F80
0F80
0F80
0F80
0F00
1F00
1E00
3E00
3C00
7000
E000
C000
ENDCHAR

STARTCHAR asterisk
ENCODING 42
SWIDTH 1131 0
DWIDTH 30 0
BBX 20 11 5 2
BITMAP
00F000
00F000
F8F1F0
FCF3F0
3FFFC0
07FE00
03FC00
03FC00
1F0F80
1E0780
1E0780
ENDCHAR

STARTCHAR plus
ENCODING 43
SWIDTH 1131 0
DWIDTH 30 0
BBX 21 14 4 0
BITMAP
00F800
00F800
00F800
00F800
00F800
00F800
FFFFF8
FFFFF8
00F800
00F800
00F800
00F800
00F800
00F800
ENDCHAR

STARTCHAR comma
ENCODING 44
SWIDTH 1131 0
DWIDTH 30 0
BBX 9 8 10 -4
BITMAP
3F80
3F00
7F00
7E00
7C00
FC00
F000
E000
ENDCHAR

STARTCHAR minus
ENCODING 45
SWIDTH 1131 0
DWIDTH 30 0
BBX 22 2 4 6
BITMAP
FFFFFC
FFFFFC
ENDCHAR

STARTCHAR period
ENCODING 46
SWIDTH 1131 0
DWIDTH 30 0
BBX 9 4 10 0
BITMAP
7F00
FF80
FF80
7F00
ENDCHAR

STARTCHAR slash
ENCODING 47
SWIDTH 1131 0
DWIDTH 30 0
BBX 22 20 4 -3
BITMAP
00001C
00003C
0000F8
0001F0
0001E0
0003C0
000700
000F00
003E00
003C00
007800
00F000
01C000
03C000
0F8000
0F0000
1E0000
3E0000
7C0000
F00000
ENDCHAR

STARTCHAR zero
ENCODING 48
SWIDTH 1131 0
DWIDTH 30 0
BBX 20 15 5 0
BITMAP
03FC00
1F0F80
3E07C0
7C03E0
7C03E0
F801F0
F801F0
F801F0
F801F0
F801F0
7C03E0
7C03E0
3E07C0
1F0F80
03FC00
ENDCHAR

STARTCHAR one
ENCODING 49
SWIDTH 1131 0
DWIDTH 30 0
BBX 20 15 5 0
BITMAP
01F800
7FF800
00F800
00F800
00F800
00F800
00F800
00F800
00F800
00F800
00F800
00F800
00F800
00F800
FFFFF0
ENDCHAR

STARTCHAR two
ENCODING 50
SWIDTH 1131 0
DWIDTH 30 0
BBX 20 15 5 0
BITMAP
3FFE00
FC07C0
F803E0
0003E0
0003E0
0003E0
0007C0
000F80
007C00
01F000
03E000
1F0000
7C01F0
F801F0
FFFFF0
ENDCHAR

STARTCHAR three
ENCODING 51
SWIDTH 1131 0
DWIDTH 30 0
BBX 19 15 6 0
BITMAP
3FFF00
FC07C0
FC03E0
0003E0
0003E0
0003E0
0007C0
07FF00
0007C0
0003E0
0003E0
0003E0
FC03E0
FC07C0
3FFF00
ENDCHAR

STARTCHAR four
ENCODING 52
SWIDTH 1131 0
DWIDTH 30 0
BBX 21 15 4 0
BITMAP
007F00
00FF00
018F00
030F00
0E0F00
1C0F00
300F00
600F00
C00F00
FFFFF8
FFFFF8
000F00
000F00
000F00
01FFF8
ENDCHAR

STARTCHAR five
ENCODING 53
SWIDTH 1131 0
DWIDTH 30 0
BBX 20 15 5 0
BITMAP
7FFFC0
7C0000
7C0000
7C0000
7C0000
7C0000
7FFF80
7C07E0
0003F0
0003F0
0003F0
0003F0
FE03E0
FE07C0
3FFE00
ENDCHAR

STARTCHAR six
ENCODING 54
SWIDTH 1131 0
DWIDTH 30 0
BBX 19 15 6 0
BITMAP
00FF80
03C000
0E0000
3C0000
7C0000
780000
F9FF00
FE07C0
FC03C0
F803E0
F803E0
F803E0
7C03C0
7E07C0
0FFF00
ENDCHAR

STARTCHAR seven
ENCODING 55
SWIDTH 1131 0
DWIDTH 30 0
BBX 20 15 6 0
BITMAP
FFFFF0
F803F0
F803E0
0007C0
0007C0
000F80
000F80
001F00
003F00
003C00
00F800
01F800
01F000
03F000
07E000
ENDCHAR

STARTCHAR eight
ENCODING 56
SWIDTH 1131 0
DWIDTH 30 0
BBX 18 15 6 0
BITMAP
0FFC00
7C0F80
F807C0
F807C0
F807C0
F807C0
7C0F80
0FFC00
7C0F80
F807C0
F807C0
F807C0
F807C0
7C0F80
0FFC00
ENDCHAR

STARTCHAR nine
ENCODING 57
SWIDTH 1131 0
DWIDTH 30 0
BBX 18 15 6 0
BITMAP
0FFC00
7C0F80
F80780
F807C0
F807C0
F807C0
F807C0
7C1FC0
0FE7C0
0007C0
000F80
000F80
001F00
00F800
7FE000
ENDCHAR

STARTCHAR colon
ENCODING 58
SWIDTH 1131 0
DWIDTH 30 0
BBX 10 12 10 0
BITMAP
7F80
FFC0
FFC0
7F80
0000
0000
0000
0000
7F80
FFC0
FFC0
7F80
ENDCHAR

STARTCHAR semicolon
ENCODING 59
SWIDTH 1131 0
DWIDTH 30 0
BBX 12 16 8 -4
BITMAP
1FE0
3FF0
3FF0
1FE0
0000
0000
0000
0000
1FC0
1F80
3F80
3F00
3C00
FC00
F800
F000
ENDCHAR

STARTCHAR less
ENCODING 60
SWIDTH 1131 0
DWIDTH 30 0
BBX 24 11 4 2
BITMAP
00001F
0007FF
007FE0
0FFC00
3F8000
F00000
3F8000
0FFC00
007FE0
0007FF
00003F
ENDCHAR

STARTCHAR equal
ENCODING 61
SWIDTH 1131 0
DWIDTH 30 0
BBX 22 8 4 3
BITMAP
FFFFFC
FFFFFC
000000
000000
000000
000000
FFFFFC
FFFFFC
ENDCHAR

STARTCHAR greater
ENCODING 62
SWIDTH 1131 0
DWIDTH 30 0
BBX 24 11 2 2
BITMAP
F80000
FFE000
07FE00
003FF0
0001FC
00000F
0001FC
003FF0
07FE00
FFE000
FC0000
ENDCHAR

STARTCHAR question
ENCODING 63
SWIDTH 1131 0
DWIDTH 30 0
BBX 22 15 4 0
BITMAP
3FFFF0
FC01F8
FC00FC
0000FC
0001F8
0007F0
007F00
01F800
01F000
000000
000000
03F000
0FF800
0FF800
03F000
ENDCHAR

STARTCHAR at
ENCODING 64
SWIDTH 1131 0
DWIDTH 30 0
BBX 28 19 1 -2
BITMAP
01FFE000
07C03C00
1E001E00
1E001F00
7C000700
7C000780
F80FFF80
F83F0780
F83E0780
F87E0780
F87E0780
F83E0780
F83F0780
7C0FFFF0
7C000000
1E000000
1E000000
07C03F00
01FFFF00
ENDCHAR

STARTCHAR A
ENCODING 65
SWIDTH 1131 0
DWIDTH 30 0
BBX 30 15 0 0
BITMAP
0007C000
000FE000
000FF000
001CF000
00387C00
00383E00
00F03E00
01E01F00
03E01F80
03C00F80
07FFFFC0
07000FC0
0E0003F0
3E0003F0
FFF01FFC
ENDCHAR

STARTCHAR B
ENCODING 66
SWIDTH 1131 0
DWIDTH 30 0
BBX 26 15 2 0
BITMAP
FFFFF800
0F807C00
0F803E00
0F803E00
0F803E00
0F803C00
0F807800
0FFFFE00
0F803F00
0F8007C0
0F8007C0
0F8007C0
0F800FC0
0F807F00
FFFFFC00
ENDCHAR

STARTCHAR C
ENCODING 67
SWIDTH 1131 0
DWIDTH 30 0
BBX 26 15 2 0
BITMAP
00FFC3C0
0FC0FBC0
1F003FC0
3F0007C0
3C0003C0
F80003C0
F8000000
F8000000
F8000000
F8000000
3C000000
3F000000
1F000FC0
0FC03F00
00FFFC00
ENDCHAR

STARTCHAR D
ENCODING 68
SWIDTH 1131 0
DWIDTH 30 0
BBX 26 15 2 0
BITMAP
FFFFF000
0F807C00
0F800F00
0F800F00
0F8007C0
0F8007C0
0F8007C0
0F8007C0
0F8007C0
0F8007C0
0F8007C0
0F800F00
0F800F00
0F807C00
FFFFF000
ENDCHAR

STARTCHAR E
ENCODING 69
SWIDTH 1131 0
DWIDTH 30 0
BBX 25 15 1 0
BITMAP
FFFFFF80
03E00180
03E00180
03E00180
03E06000
03E06000
03E06000
03FFE000
03E06000
03E06000
03E00180
03E00180
03E00180
03E00180
FFFFFF80
ENDCHAR

STARTCHAR F
ENCODING 70
SWIDTH 1131 0
DWIDTH 30 0
BBX 26 15 2 0
BITMAP
FFFFFFC0
03E001C0
03E001C0
03E001C0
03E07000
03E07000
03E07000
03FFF000
03E07000
03E07000
03E00000
03E00000
03E00000
03E00000
FFFF8000
ENDCHAR

STARTCHAR G
ENCODING 71
SWIDTH 1131 0
DWIDTH 30 0
BBX 27 15 2 0
BITMAP
03FF8700
0F81F700
3C003F00
3C000F00
F8000700
F8000700
F8000000
F8000000
F8000000
F803FFE0
FC003E00
3C003E00
3F003E00
0FC07E00
03FFF800
ENDCHAR

STARTCHAR H
ENCODING 72
SWIDTH 1131 0
DWIDTH 30 0
BBX 28 15 1 0
BITMAP
FFF0FFF0
0F801F00
0F801F00
0F801F00
0F801F00
0F801F00
0F801F00
0FFFFF00
0F801F00
0F801F00
0F801F00
0F801F00
0F801F00
0F801F00
FFF0FFF0
ENDCHAR

STARTCHAR I
ENCODING 73
SWIDTH 1131 0
DWIDTH 30 0
BBX 19 15 5 0
BITMAP
FFFFE0
01F000
01F000
01F000
01F000
01F000
01F000
01F000
01F000
01F000
01F000
01F000
01F000
01F000
FFFFE0
ENDCHAR

STARTCHAR J
ENCODING 74
SWIDTH 1131 0
DWIDTH 30 0
BBX 24 15 4 0
BITMAP
0FFFFF
0007C0
0007C0
0007C0
0007C0
0007C0
0007C0
0007C0
C007C0
C007C0
C007C0
C007C0
E00700
F00F00
3FFC00
ENDCHAR

STARTCHAR K
ENCODING 75
SWIDTH 1131 0
DWIDTH 30 0
BBX 26 15 2 0
BITMAP
FFF1FFC0
0F807E00
0F807800
0F81F000
0F838000
0F8E0000
0FBE0000
0FFF0000
0F9F8000
0F83C000
0F81F000
0F81F800
0F80FC00
0F807E00
FFF07FC0
ENDCHAR

STARTCHAR L
ENCODING 76
SWIDTH 1131 0
DWIDTH 30 0
BBX 26 15 2 0
BITMAP
FFFF8000
03E00000
03E00000
03E00000
03E00000
03E00000
03E00000
03E00000
03E00000
03E00000
03E001C0
03E001C0
03E001C0
03E001C0
FFFFFFC0
ENDCHAR

STARTCHAR M
ENCODING 77
SWIDTH 1131 0
DWIDTH 30 0
BBX 30 15 0 0
BITMAP
FFC00FFC
3FC00FF0
3FE01FF0
3EE01DF0
3E3031F0
3E3031F0
3E1861F0
3E1861F0
3E0CC1F0
3E0FC1F0
3E0781F0
3E0781F0
3E0001F0
3E0001F0
FFE01FFC
ENDCHAR

STARTCHAR N
ENCODING 78
SWIDTH 1131 0
DWIDTH 30 0
BBX 28 15 1 0
BITMAP
FFC0FFF0
0FE01F00
0FE01F00
0FB01F00
0F981F00
0F8E1F00
0F8E1F00
0F871F00
0F819F00
0F819F00
0F80DF00
0F807F00
0F803F00
0F803F00
FFF81F00
ENDCHAR

STARTCHAR O
ENCODING 79
SWIDTH 1131 0
DWIDTH 30 0
BBX 26 15 2 0
BITMAP
03FFF000
0F807C00
3C000F00
3C000F00
F80007C0
F80007C0
F80007C0
F80007C0
F80007C0
F80007C0
F80007C0
3C000F00
3C000F00
0F807C00
03FFF000
ENDCHAR

STARTCHAR P
ENCODING 80
SWIDTH 1131 0
DWIDTH 30 0
BBX 26 15 2 0
BITMAP
FFFFFE00
03E00F00
03E007C0
03E007C0
03E007C0
03E007C0
03E007C0
03E00F00
03FFFE00
03E00000
03E00000
03E00000
03E00000
03E00000
FFFFC000
ENDCHAR

STARTCHAR Q
ENCODING 81
SWIDTH 1131 0
DWIDTH 30 0
BBX 27 20 2 -5
BITMAP
03FFC000
0F80F800
3C003E00
3C003E00
F8000F00
F8000F00
F8000F00
F8000F00
F8000F00
F8000F00
F8000F00
3C003E00
3C003E00
0F80F800
03FFC000
00F00000
00C00000
00FF00E0
07FFFFE0
07C1FFC0
ENDCHAR

STARTCHAR R
ENCODING 82
SWIDTH 1131 0
DWIDTH 30 0
BBX 28 15 1 0
BITMAP
FFFFFE00
0F803F00
0F800780
0F800780
0F800780
0F801F00
0F807E00
0FFFF800
0F80FC00
0F807C00
0F803E00
0F803F00
0F801F00
0F801F80
FFE007F0
ENDCHAR

STARTCHAR S
ENCODING 83
SWIDTH 1131 0
DWIDTH 30 0
BBX 21 15 5 0
BITMAP
1FFDF0
7E07F0
FC03F0
F801F0
F80000
FC0000
7FF800
1FFFC0
001FF0
0001F8
F80078
F80078
FC01F8
FE07F0
E7FFC0
ENDCHAR

STARTCHAR T
ENCODING 84
SWIDTH 1131 0
DWIDTH 30 0
BBX 27 15 1 0
BITMAP
FFFFFFE0
F01F01E0
F01F01E0
F01F01E0
F01F01E0
001F0000
001F0000
001F0000
001F0000
001F0000
001F0000
001F0000
001F0000
001F0000
03FFF800
ENDCHAR

STARTCHAR U
ENCODING 85
SWIDTH 1131 0
DWIDTH 30 0
BBX 28 15 1 0
BITMAP
FFF0FFF0
0F801F00
0F801F00
0F801F00
0F801F00
0F801F00
0F801F00
0F801F00
0F801F00
0F801F00
0F801F00
0F801F00
0F801F00
07C03E00
01FFFC00
ENDCHAR

STARTCHAR V
ENCODING 86
SWIDTH 1131 0
DWIDTH 30 0
BBX 30 15 0 0
BITMAP
FFE01FFC
3F0000F0
0F0001C0
0FC001C0
07C00380
03E00F00
01E00F00
01F01E00
00F83C00
00383C00
003C7000
001F6000
000FE000
000FC000
00078000
ENDCHAR

STARTCHAR W
ENCODING 87
SWIDTH 1131 0
DWIDTH 30 0
BBX 30 15 0 0
BITMAP
FFF03FFC
0F0001F0
0F0001F0
0F0001F0
0F0381F0
0F0381F0
0F07C1F0
070FC1C0
070CE1C0
071C71C0
073871C0
07303DC0
03E01F80
03E01F80
03C00F80
ENDCHAR

STARTCHAR X
ENCODING 88
SWIDTH 1131 0
DWIDTH 30 0
BBX 28 15 1 0
BITMAP
FFF87FE0
0FE01E00
03F03C00
01F87800
007EE000
003FC000
001F8000
001FC000
003FE000
0079F800
01F0FC00
03E07E00
07C03F00
0F801F80
FFE03FF0
ENDCHAR

STARTCHAR Y
ENCODING 89
SWIDTH 1131 0
DWIDTH 30 0
BBX 28 15 0 0
BITMAP
FFF03FF0
0FC00F80
07E00F00
03F01E00
01F83C00
00FC7000
003FE000
001FC000
000F8000
000F8000
000F8000
000F8000
000F8000
000F8000
01FFFC00
ENDCHAR

STARTCHAR Z
ENCODING 90
SWIDTH 1131 0
DWIDTH 30 0
BBX 21 15 5 0
BITMAP
FFFFF0
C003F0
C007E0
C00FC0
001F80
007E00
00FC00
01F800
03F000
07E000
1F8000
3F0018
7E0018
FC0018
FFFFF8
ENDCHAR

STARTCHAR bracketleft
ENCODING 91
SWIDTH 1131 0
DWIDTH 30 0
BBX 10 20 10 -3
BITMAP
FFC0
F000
F000
F000
F000
F000
F000
F000
F000
F000
F000
F000
F000
F000
F000
F000
F000
F000
F000
FFC0
ENDCHAR

STARTCHAR backslash
ENCODING 92
SWIDTH 1131 0
DWIDTH 30 0
BBX 24 20 1 -3
BITMAP
F80000
7C0000
1E0000
0F8000
078000
03C000
01E000
007000
003800
003E00
001E00
000F00
000780
0001C0
0000E0
000078
000078
00003C
00001E
00001F
ENDCHAR

STARTCHAR bracketright
ENCODING 93
SWIDTH 1131 0
DWIDTH 30 0
BBX 10 20 10 -3
BITMAP
FFC0
03C0
03C0
03C0
03C0
03C0
03C0
03C0
03C0
03C0
03C0
03C0
03C0
03C0
03C0
03C0
03C0
03C0
03C0
FFC0
ENDCHAR

STARTCHAR asciicircum
ENCODING 94
SWIDTH 1131 0
DWIDTH 30 0
BBX 17 7 7 4
BITMAP
03E000
07F000
0FF800
1E3E00
7C1F00
F80F80
F00780
ENDCHAR

STARTCHAR underscore
ENCODING 95
SWIDTH 1131 0
DWIDTH 30 0
BBX 30 2 0 0
BITMAP
FFFFFFFC
FFFFFFFC
ENDCHAR

STARTCHAR quoteleft
ENCODING 96
SWIDTH 1131 0
DWIDTH 30 0
BBX 13 7 7 11
BITMAP
FE00
7F80
1FC0
07C0
03E0
01F0
0078
ENDCHAR

STARTCHAR a
ENCODING 97
SWIDTH 1131 0
DWIDTH 30 0
BBX 24 12 4 0
BITMAP
3FFFC0
FC01F0
0000F0
0000F8
1FFFF8
7E01F8
FC00F8
FC00F8
FC00F8
FC01F8
7E07F8
3FFCFF
ENDCHAR

STARTCHAR b
ENCODING 98
SWIDTH 1131 0
DWIDTH 30 0
BBX 26 17 2 0
BITMAP
FF800000
0F800000
0F800000
0F800000
0F800000
0F9FFC00
0FF07F00
0FC00F00
0F8007C0
0F8007C0
0F8007C0
0F8007C0
0F8007C0
0F8007C0
0FC00F00
0FF07F00
FF9FFC00
ENDCHAR

STARTCHAR c
ENCODING 99
SWIDTH 1131 0
DWIDTH 30 0
BBX 22 12 4 0
BITMAP
03FFCC
1F01FC
7C001C
7C000C
F0000C
F00000
F00000
F00000
7C0000
7C003C
3F00FC
0FFFF0
ENDCHAR

STARTCHAR d
ENCODING 100
SWIDTH 1131 0
DWIDTH 30 0
BBX 26 17 2 0
BITMAP
0003FC00
00007C00
00007C00
00007C00
00007C00
03FE7C00
0F83FC00
3C00FC00
3C007C00
F8007C00
F8007C00
F8007C00
F8007C00
3C007C00
3C00FC00
1F83FC00
03FE7FC0
ENDCHAR

STARTCHAR e
ENCODING 101
SWIDTH 1131 0
DWIDTH 30 0
BBX 22 12 4 0
BITMAP
03FFC0
1F03F0
7C00F8
7C00F8
F0003C
FFFFFC
F00000
F00000
7C0000
7C003C
3F00FC
03FFF0
ENDCHAR

STARTCHAR f
ENCODING 102
SWIDTH 1131 0
DWIDTH 30 0
BBX 20 16 4 0
BITMAP
007FF0
01F000
03C000
03C000
7FFFE0
03C000
03C000
03C000
03C000
03C000
03C000
03C000
03C000
03C000
03C000
FFFF00
ENDCHAR

STARTCHAR g
ENCODING 103
SWIDTH 1131 0
DWIDTH 30 0
BBX 24 16 2 -4
BITMAP
03FE7F
0F83FC
3C00FC
3C007C
F8007C
F8007C
F8007C
F8007C
3C007C
3C00FC
1F83FC
03FE7C
00007C
00007C
0000F8
0FFFF0
ENDCHAR

STARTCHAR h
ENCODING 104
SWIDTH 1131 0
DWIDTH 30 0
BBX 27 16 2 0
BITMAP
FF800000
0F800000
0F800000
0F800000
0F9FF800
0FF07C00
0FC03E00
0F803E00
0F803E00
0F803E00
0F803E00
0F803E00
0F803E00
0F803E00
0F803E00
FFF0FFE0
ENDCHAR

STARTCHAR i
ENCODING 105
SWIDTH 1131 0
DWIDTH 30 0
BBX 17 18 7 0
BITMAP
03E000
03E000
03E000
000000
000000
000000
7FE000
03E000
03E000
03E000
03E000
03E000
03E000
03E000
03E000
03E000
03E000
FFFF80
ENDCHAR

STARTCHAR j
ENCODING 106
SWIDTH 1131 0
DWIDTH 30 0
BBX 15 22 4 -4
BITMAP
003E
003E
003E
0000
0000
0000
0FFE
003E
003E
003E
003E
003E
003E
003E
003E
003E
003E
003E
003E
003C
007C
FFF0
ENDCHAR

STARTCHAR k
ENCODING 107
SWIDTH 1131 0
DWIDTH 30 0
BBX 26 16 2 0
BITMAP
FF800000
0F800000
0F800000
0F800000
0F83FF00
0F80F800
0F81C000
0F838000
0F8F0000
0FBF8000
0FE3C000
0FC1F000
0F80F800
0F807C00
0F803E00
FFE0FFC0
ENDCHAR

STARTCHAR l
ENCODING 108
SWIDTH 1131 0
DWIDTH 30 0
BBX 17 16 6 0
BITMAP
7FE000
03E000
03E000
03E000
03E000
03E000
03E000
03E000
03E000
03E000
03E000
03E000
03E000
03E000
03E000
FFFF80
ENDCHAR

STARTCHAR m
ENCODING 109
SWIDTH 1131 0
DWIDTH 30 0
BBX 30 12 0 0
BITMAP
FDFF3FC0
3F0FE1F0
3E07C0F8
3E07C0F8
3E07C0F8
3E07C0F8
3E07C0F8
3E07C0F8
3E07C0F8
3E07C0F8
3E07C0F8
FFCFE3FC
ENDCHAR

STARTCHAR n
ENCODING 110
SWIDTH 1131 0
DWIDTH 30 0
BBX 28 12 1 0
BITMAP
FF8FFC00
0FF83E00
0FC01F00
0F801F00
0F801F00
0F801F00
0F801F00
0F801F00
0F801F00
0F801F00
0F801F00
FFF07FF0
ENDCHAR

STARTCHAR o
ENCODING 111
SWIDTH 1131 0
DWIDTH 30 0
BBX 22 12 4 0
BITMAP
03FF00
1F03E0
7C00F8
7C00F8
F0003C
F0003C
F0003C
F0003C
7C00F8
7C00F8
3F03F0
03FF00
ENDCHAR

STARTCHAR p
ENCODING 112
SWIDTH 1131 0
DWIDTH 30 0
BBX 26 16 2 -4
BITMAP
FF9FFC00
0FF07F00
0FC00F00
0F8007C0
0F8007C0
0F8007C0
0F8007C0
0F8007C0
0F8007C0
0FC00F00
0FF07F00
0F9FFC00
0F800000
0F800000
0F800000
FFFE0000
ENDCHAR

STARTCHAR q
ENCODING 113
SWIDTH 1131 0
DWIDTH 30 0
BBX 26 16 2 -4
BITMAP
03FE7FC0
0F83FC00
3C00FC00
3C007C00
F8007C00
F8007C00
F8007C00
F8007C00
3C007C00
3C00FC00
1F83FC00
03FE7C00
00007C00
00007C00
00007C00
000FFFC0
ENDCHAR

STARTCHAR r
ENCODING 114
SWIDTH 1131 0
DWIDTH 30 0
BBX 26 12 2 0
BITMAP
FFE3FFC0
03FE0FC0
03F007C0
03E00000
03E00000
03E00000
03E00000
03E00000
03E00000
03E00000
03E00000
FFFF8000
ENDCHAR

STARTCHAR s
ENCODING 115
SWIDTH 1131 0
DWIDTH 30 0
BBX 22 12 4 0
BITMAP
1FFCF8
7E07F8
FC01F8
FC0038
7E0000
1FFFE0
0007F8
0000FC
F0003C
FC00FC
FF03F8
FDFFE0
ENDCHAR

STARTCHAR t
ENCODING 116
SWIDTH 1131 0
DWIDTH 30 0
BBX 25 16 1 0
BITMAP
01F00000
01F00000
01F00000
01F00000
FFFFFE00
01F00000
01F00000
01F00000
01F00000
01F00000
01F00000
01F00000
01F00000
01F00780
00781F00
003FFC00
ENDCHAR

STARTCHAR u
ENCODING 117
SWIDTH 1131 0
DWIDTH 30 0
BBX 27 12 1 0
BITMAP
FF80FE00
0F803E00
0F803E00
0F803E00
0F803E00
0F803E00
0F803E00
0F803E00
0F803E00
0F807E00
07C1FE00
03FF3FE0
ENDCHAR

STARTCHAR v
ENCODING 118
SWIDTH 1131 0
DWIDTH 30 0
BBX 28 12 1 0
BITMAP
FFE03FF0
1F800380
0F800700
07C01E00
07C01E00
03E03C00
03E07800
01F0F800
0070E000
0079C000
003F8000
003F8000
ENDCHAR

STARTCHAR w
ENCODING 119
SWIDTH 1131 0
DWIDTH 30 0
BBX 30 12 0 0
BITMAP
FFC003FC
7C008078
7C038078
3E03C0F8
3E07C0F0
0E0FE0F0
0F0CF1C0
0F1C71C0
07383DC0
07F01F80
03F01F80
03E00F00
ENDCHAR

STARTCHAR x
ENCODING 120
SWIDTH 1131 0
DWIDTH 30 0
BBX 26 12 2 0
BITMAP
FFF0FFC0
1FC07C00
07E0F000
03F1C000
007F8000
003F0000
003F8000
007FC000
00E1F000
03C0FC00
0F807E00
FFE1FFC0
ENDCHAR

STARTCHAR y
ENCODING 121
SWIDTH 1131 0
DWIDTH 30 0
BBX 28 16 1 -4
BITMAP
FFE07FF0
1F801F00
0FC03E00
07C03C00
03E07C00
01F07800
0078E000
003FC000
001FC000
000F8000
000F0000
001F0000
001E0000
003E0000
003E0000
07FFC000
ENDCHAR

STARTCHAR z
ENCODING 122
SWIDTH 1131 0
DWIDTH 30 0
BBX 19 12 6 0
BITMAP
FFFFE0
C007E0
C00FC0
C01F80
003C00
01F800
03F000
07C000
0F0060
7E0060
FC0060
FFFFE0
ENDCHAR

STARTCHAR braceleft
ENCODING 123
SWIDTH 1131 0
DWIDTH 30 0
BBX 15 21 7 -3
BITMAP
007E
03C0
03C0
07C0
07C0
07C0
07C0
07C0
07C0
0F80
FC00
0F80
07C0
07C0
07C0
07C0
07C0
07C0
03C0
03C0
007E
ENDCHAR

STARTCHAR bar
ENCODING 124
SWIDTH 1131 0
DWIDTH 30 0
BBX 5 22 13 -4
BITMAP
F8
F8
F8
F8
F8
F8
F8
F8
F8
F8
F8
F8
F8
F8
F8
F8
F8
F8
F8
F8
F8
F8
ENDCHAR

STARTCHAR braceright
ENCODING 125
SWIDTH 1131 0
DWIDTH 30 0
BBX 15 21 8 -3
BITMAP
FC00
0780
0780
07C0
07C0
07C0
07C0
07C0
07C0
03E0
007E
03E0
07C0
07C0
07C0
07C0
07C0
07C0
0780
0780
FC00
ENDCHAR

STARTCHAR asciitilde
ENCODING 126
SWIDTH 1131 0
DWIDTH 30 0
BBX 19 5 6 5
BITMAP
3FC0E0
7FE0E0
FFFFE0
F0FFC0
F03F80
ENDCHAR

STARTCHAR OE
ENCODING 128
SWIDTH 1131 0
DWIDTH 30 0
BBX 30 15 0 0
BITMAP
03FFFFFC
3FC3E00C
3E03E00C
7E03E00C
7C03E00C
FC03E180
FC03E180
FC03FF80
FC03E180
FC03E180
7C03E00C
7E03E00C
3E03E00C
3FC3E00C
03FFFFFC
ENDCHAR

STARTCHAR oe
ENCODING 129
SWIDTH 1131 0
DWIDTH 30 0
BBX 27 15 1 0
BITMAP
FFE0FFE0
1E001F00
0F803E00
07C07C00
03E0F800
01F0E000
0079C000
003F8000
001F0000
001F0000
001F0000
001F0000
001F0000
001F0000
03FFF800
ENDCHAR

STARTCHAR Ydieresis
ENCODING 130
SWIDTH 1131 0
DWIDTH 30 0
BBX 27 20 1 0
BITMAP
07C03E00
07C03E00
07C03E00
00000000
00000000
FFE0FFE0
1E001F00
0F803E00
07C07C00
03E0F800
01F0E000
0079C000
003F8000
001F0000
001F0000
001F0000
001F0000
001F0000
001F0000
03FFF800
ENDCHAR

STARTCHAR error
ENCODING 159
SWIDTH 1131 0
DWIDTH 30 0
BBX 30 25 0 -5
BITMAP
03FFFFC0
0FFFFFF8
3FFFFFFC
7FF81FFC
7FF00FFC
FFE003FC
FFE003FC
FFE003FC
FFF00000
FFF80000
7FFF8000
3FFFE000
0FFFF000
03FFFC00
003FFC00
000FFC00
000FFC00
000FFC00
00000000
00000000
0007F000
000FFC00
000FFC00
000FFC00
0007F000
ENDCHAR

STARTCHAR exclamdown
ENCODING 161
SWIDTH 1131 0
DWIDTH 30 0
BBX 7 15 12 -3
BITMAP
7C
FE
FE
7C
00
7C
7C
7C
7C
7C
7C
7C
7C
7C
7C
ENDCHAR

STARTCHAR cent
ENCODING 162
SWIDTH 1131 0
DWIDTH 30 0
BBX 21 20 5 -3
BITMAP
001800
001800
001800
001800
001800
1FFFD8
7E0078
7C0018
FC0018
F80000
F80000
FC0000
7C0000
7E01F8
1FFFE0
001800
001800
001800
001800
001800
ENDCHAR

STARTCHAR sterling
ENCODING 163
SWIDTH 1131 0
DWIDTH 30 0
BBX 22 15 4 0
BITMAP
01FFF8
0FC038
0F0018
1F0018
1F8000
0F8000
03C000
FFFFE0
03C000
03C000
0F8000
1F000C
3FFC0C
FFFFFC
F007F8
ENDCHAR

STARTCHAR currency
ENCODING 164
SWIDTH 1131 0
DWIDTH 30 0
BBX 22 10 4 2
BITMAP
FC003C
FFFFFC
1E01E0
3C00F0
3C00F0
3C00F0
3C00F0
1E01E0
FFFFFC
F0003C
ENDCHAR

STARTCHAR yen
ENCODING 165
SWIDTH 1131 0
DWIDTH 30 0
BBX 27 15 1 0
BITMAP
FFE0FFE0
0F803E00
07803C00
03C07C00
7FE0FF80
01F0E000
0079C000
003F8000
7FFFFF80
001F0000
001F0000
001F0000
001F0000
001F0000
03FFF800
ENDCHAR

STARTCHAR brokenbar
ENCODING 166
SWIDTH 1131 0
DWIDTH 30 0
BBX 5 23 13 -5
BITMAP
F8
F8
F8
F8
F8
F8
F8
F8
F8
00
00
00
00
00
F8
F8
F8
F8
F8
F8
F8
F8
F8
ENDCHAR

STARTCHAR section
ENCODING 167
SWIDTH 1131 0
DWIDTH 30 0
BBX 26 18 2 -3
BITMAP
03FFFE00
0F803E00
0F003E00
0F803E00
3FF00000
F0FF0000
E00FC000
F801F800
3F003E00
0FC00700
03FC03C0
003F01C0
0003C1C0
0001F7C0
1F007F00
1F003C00
1F007800
1FFFF000
ENDCHAR

STARTCHAR dieresis
ENCODING 168
SWIDTH 1131 0
DWIDTH 30 0
BBX 17 3 7 15
BITMAP
F80F80
F80F80
F80F80
ENDCHAR

STARTCHAR copyright
ENCODING 169
SWIDTH 1131 0
DWIDTH 30 0
BBX 29 15 0 0
BITMAP
03FFFE00
3E0003C0
3C0001C0
783FE0F0
79E07CF0
F9C01CF8
F9C000F8
F9C000F8
F9C000F8
F9C01CF8
79E07CF0
783FE0F0
3C0001C0
3E0003C0
03FFFE00
ENDCHAR

STARTCHAR ordfeminine
ENCODING 170
SWIDTH 1131 0
DWIDTH 30 0
BBX 22 13 4 5
BITMAP
1FFFC0
3E03E0
3E01F0
0001F0
0FFFF0
3E03F0
7C01F0
7C01F0
3E03F0
0FFEFC
000000
000000
FFFFF8
ENDCHAR

STARTCHAR guillemotleft
ENCODING 171
SWIDTH 1131 0
DWIDTH 30 0
BBX 19 10 6 1
BITMAP
0700E0
0F03E0
3E07C0
780F00
F01C00
F01C00
780F00
3E07C0
0F03E0
0700E0
ENDCHAR

STARTCHAR logicalnot
ENCODING 172
SWIDTH 1131 0
DWIDTH 30 0
BBX 22 6 4 3
BITMAP
FFFFFC
FFFFFC
00003C
00003C
00003C
00003C
ENDCHAR

STARTCHAR hyphen
ENCODING 173
SWIDTH 1131 0
DWIDTH 30 0
BBX 18 2 6 6
BITMAP
FFFFC0
FFFFC0
ENDCHAR

STARTCHAR registered
ENCODING 174
SWIDTH 1131 0
DWIDTH 30 0
BBX 29 15 0 0
BITMAP
03FFFE00
3E0003C0
3C0001C0
78FFE0F0
78E030F0
F8E030F8
F8E030F8
F8FFE0F8
F8E030F8
F8E030F8
78E030F0
78E030F0
3C0001C0
3E0003C0
03FFFE00
ENDCHAR

STARTCHAR macron
ENCODING 175
SWIDTH 1131 0
DWIDTH 30 0
BBX 18 2 6 15
BITMAP
FFFFC0
FFFFC0
ENDCHAR

STARTCHAR degree
ENCODING 176
SWIDTH 1131 0
DWIDTH 30 0
BBX 16 8 6 9
BITMAP
0FF0
781C
F00F
F00F
F00F
F00F
781C
0FF0
ENDCHAR

STARTCHAR plusminus
ENCODING 177
SWIDTH 1131 0
DWIDTH 30 0
BBX 24 15 2 0
BITMAP
003E00
003E00
003E00
003E00
003E00
FFFFFF
FFFFFF
003E00
003E00
003E00
003E00
003E00
000000
FFFFFF
FFFFFF
ENDCHAR

STARTCHAR twosuperior
ENCODING 178
SWIDTH 1131 0
DWIDTH 30 0
BBX 15 10 8 8
BITMAP
1FE0
F07C
F07C
007C
00F0
03C0
0F80
1C00
F81E
FFFE
ENDCHAR

STARTCHAR threesuperior
ENCODING 179
SWIDTH 1131 0
DWIDTH 30 0
BBX 15 10 8 8
BITMAP
1FF0
F07E
E03E
003C
03E0
003C
003E
E03E
F07E
3FF0
ENDCHAR

STARTCHAR acute
ENCODING 180
SWIDTH 1131 0
DWIDTH 30 0
BBX 13 4 10 14
BITMAP
0FF8
3FF0
3F00
FC00
ENDCHAR

STARTCHAR mu
ENCODING 181
SWIDTH 1131 0
DWIDTH 30 0
BBX 27 17 2 -5
BITMAP
3FC003E0
07C003E0
07C003C0
078007C0
0F8007C0
0F800700
0F800F00
1F000F00
1F000E00
1F007E00
1F80FE00
3FFF3FE0
3C000000
38000000
F8000000
F8000000
F0000000
ENDCHAR

STARTCHAR paragraph
ENCODING 182
SWIDTH 1131 0
DWIDTH 30 0
BBX 24 18 2 -3
BITMAP
07FFFF
3FFE38
3FFE38
FFFE38
FFFE38
FFFE38
3FFE38
3FFE38
07FE38
000E38
000E38
000E38
000E38
000E38
000E38
000E38
000E38
00FE3F
ENDCHAR

STARTCHAR periodcentered
ENCODING 183
SWIDTH 1131 0
DWIDTH 30 0
BBX 10 6 10 4
BITMAP
3F00
7F80
FFC0
FFC0
7F80
3F00
ENDCHAR

STARTCHAR cedilla
ENCODING 184
SWIDTH 1131 0
DWIDTH 30 0
BBX 17 5 7 -5
BITMAP
078000
07FE00
000F80
FC0F80
1FFF00
ENDCHAR

STARTCHAR onesuperior
ENCODING 185
SWIDTH 1131 0
DWIDTH 30 0
BBX 15 10 8 8
BITMAP
FFC0
07C0
07C0
07C0
07C0
07C0
07C0
07C0
07C0
FFFE
ENDCHAR

STARTCHAR ordmasculine
ENCODING 186
SWIDTH 1131 0
DWIDTH 30 0
BBX 19 12 6 6
BITMAP
0FFF00
7C07C0
7803C0
F803E0
F803E0
F803E0
7803C0
7C07C0
0FFF00
000000
000000
FFFFE0
ENDCHAR

STARTCHAR guillemotright
ENCODING 187
SWIDTH 1131 0
DWIDTH 30 0
BBX 19 10 5 1
BITMAP
E01C00
F81E00
7C0F80
1E03C0
0701E0
0701E0
1E03C0
7C0F80
F81E00
E01C00
ENDCHAR

STARTCHAR onequarter
ENCODING 188
SWIDTH 1131 0
DWIDTH 30 0
BBX 28 20 1 -5
BITMAP
7F800000
0F800000
0F800000
0F800000
0F800000
0F800000
0F8001E0
0F801FE0
7FE07E00
0007E000
003F8000
03F81F00
1FC07F00
FC01DF00
E0071F00
001E1F00
003FFFF0
00001F00
00001F00
00001F00
ENDCHAR

STARTCHAR onehalf
ENCODING 189
SWIDTH 1131 0
DWIDTH 30 0
BBX 28 20 1 -5
BITMAP
7F800000
0F800000
0F800000
0F800000
0F800000
0F800000
0F8001E0
0F801FE0
7FE0FE00
0007E000
001F0000
01F87F80
0FC1C3E0
FC0181E0
F00003E0
00000780
00003E00
00007800
0000C070
0001FFF0
ENDCHAR

STARTCHAR threequarters
ENCODING 190
SWIDTH 1131 0
DWIDTH 30 0
BBX 28 20 1 -5
BITMAP
1FF00000
E07E0000
E07E0000
00780000
03E00000
00780000
E07E01E0
E07E07E0
1FF07E00
0007F800
001F8000
01FE1F00
0FE07F00
FE00DF00
F0079F00
001E1F00
00301F00
007FFFF0
00001F00
00001F00
ENDCHAR

STARTCHAR questiondown
ENCODING 191
SWIDTH 1131 0
DWIDTH 30 0
BBX 22 15 4 -3
BITMAP
000F00
003FC0
003FC0
000F00
000000
000F00
000F00
007E00
0FF800
7F0000
FE0000
FC0000
FC00FC
7E01FC
1FFFF0
ENDCHAR

STARTCHAR Agrave
ENCODING 192
SWIDTH 1131 0
DWIDTH 30 0
BBX 30 20 0 0
BITMAP
003F8000
000FE000
0000F000
00000000
00000000
0007C000
000FE000
000FF000
001CF000
00387C00
00383E00
00F03E00
01E01F00
03E01F80
03C00F80
07FFFFC0
07000FC0
0E0003F0
3E0003F0
FFF01FFC
ENDCHAR

STARTCHAR Aacute
ENCODING 193
SWIDTH 1131 0
DWIDTH 30 0
BBX 30 20 0 0
BITMAP
0003FC00
000FE000
001F0000
00000000
00000000
0007C000
000FE000
000FF000
001CF000
00387C00
00383E00
00F03E00
01E01F00
03E01F80
03C00F80
07FFFFC0
07000FC0
0E0003F0
3E0003F0
FFF01FFC
ENDCHAR

STARTCHAR Acircumflex
ENCODING 194
SWIDTH 1131 0
DWIDTH 30 0
BBX 30 20 0 0
BITMAP
001FE000
00FFFC00
01F83E00
00000000
00000000
0007C000
000FE000
000FF000
001CF000
00387C00
00383E00
00F03E00
01E01F00
03E01F80
03C00F80
07FFFFC0
07000FC0
0E0003F0
3E0003F0
FFF01FFC
ENDCHAR

STARTCHAR Atilde
ENCODING 195
SWIDTH 1131 0
DWIDTH 30 0
BBX 30 20 0 0
BITMAP
003F1E00
01FFFE00
01E3F000
00000000
00000000
0007C000
000FE000
000FF000
001CF000
00387C00
00383E00
00F03E00
01E01F00
03E01F80
03C00F80
07FFFFC0
07000FC0
0E0003F0
3E0003F0
FFF01FFC
ENDCHAR

STARTCHAR Adieresis
ENCODING 196
SWIDTH 1131 0
DWIDTH 30 0
BBX 30 20 0 0
BITMAP
01F03E00
01F03E00
01F03E00
00000000
00000000
0007C000
000FE000
000FF000
001CF000
00387C00
00383E00
00F03E00
01E01F00
03E01F80
03C00F80
07FFFFC0
07000FC0
0E0003F0
3E0003F0
FFF01FFC
ENDCHAR

STARTCHAR Aring
ENCODING 197
SWIDTH 1131 0
DWIDTH 30 0
BBX 30 20 0 0
BITMAP
000FE000
001C7000
00383C00
00383C00
001C7000
0007C000
000FE000
000FF000
001CF000
00387C00
00383E00
00F03E00
01E01F00
03E01F80
03C00F80
07FFFFC0
07000FC0
0E0003F0
3E0003F0
FFF01FFC
ENDCHAR

STARTCHAR AE
ENCODING 198
SWIDTH 1131 0
DWIDTH 30 0
BBX 29 15 0 0
BITMAP
001FFFF8
003FE038
003BE038
00F3E038
00F3E038
01E3E300
03C3E300
03C3FF00
0703E300
0703E300
0FFFE038
3E03E038
3C03E038
7C03E038
FF1FFFF8
ENDCHAR

STARTCHAR Ccedilla
ENCODING 199
SWIDTH 1131 0
DWIDTH 30 0
BBX 26 20 2 -5
BITMAP
00FFC1C0
0FC0F9C0
1F003FC0
3F000FC0
3C0007C0
FC0003C0
FC000000
FC000000
FC000000
FC000000
3C000000
3F0001C0
1F0003C0
0FC03F00
00FFF800
000F0000
000FFC00
00000F00
00F00F00
003FFE00
ENDCHAR

STARTCHAR Egrave
ENCODING 200
SWIDTH 1131 0
DWIDTH 30 0
BBX 25 20 1 0
BITMAP
01FF0000
003FC000
0001E000
00000000
00000000
FFFFFF80
03E00180
03E00180
03E00180
03E06000
03E06000
03E06000
03FFE000
03E06000
03E06000
03E00180
03E00180
03E00180
03E00180
FFFFFF80
ENDCHAR

STARTCHAR Eacute
ENCODING 201
SWIDTH 1131 0
DWIDTH 30 0
BBX 25 20 1 0
BITMAP
0001FC00
000FE000
001F0000
00000000
00000000
FFFFFF80
03E00180
03E00180
03E00180
03E06000
03E06000
03E06000
03FFE000
03E06000
03E06000
03E00180
03E00180
03E00180
03E00180
FFFFFF80
ENDCHAR

STARTCHAR Ecircumflex
ENCODING 202
SWIDTH 1131 0
DWIDTH 30 0
BBX 25 20 1 0
BITMAP
001FE000
007FFC00
01F83E00
00000000
00000000
FFFFFF80
03E00180
03E00180
03E00180
03E06000
03E06000
03E06000
03FFE000
03E06000
03E06000
03E00180
03E00180
03E00180
03E00180
FFFFFF80
ENDCHAR

STARTCHAR Edieresis
ENCODING 203
SWIDTH 1131 0
DWIDTH 30 0
BBX 25 20 1 0
BITMAP
03E03E00
03E03E00
03E03E00
00000000
00000000
FFFFFF80
03E00180
03E00180
03E00180
03E06000
03E06000
03E06000
03FFE000
03E06000
03E06000
03E00180
03E00180
03E00180
03E00180
FFFFFF80
ENDCHAR

STARTCHAR Igrave
ENCODING 204
SWIDTH 1131 0
DWIDTH 30 0
BBX 21 20 4 0
BITMAP
0FC000
01F800
003E00
000000
000000
FFFFF8
00F800
00F800
00F800
00F800
00F800
00F800
00F800
00F800
00F800
00F800
00F800
00F800
00F800
FFFFF8
ENDCHAR

STARTCHAR Iacute
ENCODING 205
SWIDTH 1131 0
DWIDTH 30 0
BBX 21 20 4 0
BITMAP
003FC0
00FE00
01F000
000000
000000
FFFFF8
00F800
00F800
00F800
00F800
00F800
00F800
00F800
00F800
00F800
00F800
00F800
00F800
00F800
FFFFF8
ENDCHAR

STARTCHAR Icircumflex
ENCODING 206
SWIDTH 1131 0
DWIDTH 30 0
BBX 21 20 4 0
BITMAP
01FE00
0FCFC0
1F83E0
000000
000000
FFFFF8
00F800
00F800
00F800
00F800
00F800
00F800
00F800
00F800
00F800
00F800
00F800
00F800
00F800
FFFFF8
ENDCHAR

STARTCHAR Idieresis
ENCODING 207
SWIDTH 1131 0
DWIDTH 30 0
BBX 21 20 4 0
BITMAP
1F03E0
1F03E0
1F03E0
000000
000000
FFFFF8
00F800
00F800
00F800
00F800
00F800
00F800
00F800
00F800
00F800
00F800
00F800
00F800
00F800
FFFFF8
ENDCHAR

STARTCHAR Eth
ENCODING 208
SWIDTH 1131 0
DWIDTH 30 0
BBX 28 15 1 0
BITMAP
1FFFFC00
03E01F00
03E003E0
03E003E0
03E001F0
03E001F0
03E001F0
FFFFC1F0
03E001F0
03E001F0
03E001F0
03E003E0
03E003E0
03E01F00
1FFFFC00
ENDCHAR

STARTCHAR Ntilde
ENCODING 209
SWIDTH 1131 0
DWIDTH 30 0
BBX 28 20 1 0
BITMAP
007E3C00
03FFFC00
03C7E000
00000000
00000000
FFC0FFF0
0FE01F00
0FE01F00
0FB01F00
0F981F00
0F8E1F00
0F8E1F00
0F871F00
0F819F00
0F819F00
0F80DF00
0F807F00
0F803F00
0F803F00
FFF81F00
ENDCHAR

STARTCHAR Ograve
ENCODING 210
SWIDTH 1131 0
DWIDTH 30 0
BBX 24 20 2 0
BITMAP
03FC00
007F00
000F80
000000
000000
03FFC0
0F80F8
3C003E
3C003E
F8000F
F8000F
F8000F
F8000F
F8000F
F8000F
F8000F
3C003E
3C003E
0F80F8
03FFC0
ENDCHAR

STARTCHAR Oacute
ENCODING 211
SWIDTH 1131 0
DWIDTH 30 0
BBX 24 20 2 0
BITMAP
0001F8
000FC0
001F00
000000
000000
03FFC0
0F80F8
3C003E
3C003E
F8000F
F8000F
F8000F
F8000F
F8000F
F8000F
F8000F
3C003E
3C003E
0F80F8
03FFC0
ENDCHAR

STARTCHAR Ocircumflex
ENCODING 212
SWIDTH 1131 0
DWIDTH 30 0
BBX 24 20 2 0
BITMAP
007F80
03F3F0
07E0F8
000000
000000
03FFC0
0F80F8
3C003E
3C003E
F8000F
F8000F
F8000F
F8000F
F8000F
F8000F
F8000F
3C003E
3C003E
0F80F8
03FFC0
ENDCHAR

STARTCHAR Otilde
ENCODING 213
SWIDTH 1131 0
DWIDTH 30 0
BBX 24 20 2 0
BITMAP
00FC78
07FFF8
078FF0
000000
000000
03FFC0
0F80F8
3C003E
3C003E
F8000F
F8000F
F8000F
F8000F
F8000F
F8000F
F8000F
3C003E
3C003E
0F80F8
03FFC0
ENDCHAR

STARTCHAR Odieresis
ENCODING 214
SWIDTH 1131 0
DWIDTH 30 0
BBX 24 20 2 0
BITMAP
07C0F8
07C0F8
07C0F8
000000
000000
03FFC0
0F80F8
3C003E
3C003E
F8000F
F8000F
F8000F
F8000F
F8000F
F8000F
F8000F
3C003E
3C003E
0F80F8
03FFC0
ENDCHAR

STARTCHAR multiply
ENCODING 215
SWIDTH 1131 0
DWIDTH 30 0
BBX 20 12 5 1
BITMAP
E00030
F801F0
7C03E0
1F0F80
079E00
01F800
01FC00
039E00
1F07C0
3E03E0
7C01F0
600030
ENDCHAR

STARTCHAR Oslash
ENCODING 216
SWIDTH 1131 0
DWIDTH 30 0
BBX 24 19 4 -2
BITMAP
00001C
00001C
0FFFF8
3F00F0
3C01F8
7C03DC
70071C
F00E1F
F03C1F
F0381F
F0701F
F0F01F
71C01C
73803C
7F0038
1E01F8
3FFFE0
700000
700000
ENDCHAR

STARTCHAR Ugrave
ENCODING 217
SWIDTH 1131 0
DWIDTH 30 0
BBX 28 20 1 0
BITMAP
01FE0000
001F8000
0007C000
00000000
00000000
FFF0FFF0
0F801F00
0F801F00
0F801F00
0F801F00
0F801F00
0F801F00
0F801F00
0F801F00
0F801F00
0F801F00
0F801F00
07801E00
07C03E00
01FFFC00
ENDCHAR

STARTCHAR Uacute
ENCODING 218
SWIDTH 1131 0
DWIDTH 30 0
BBX 28 20 1 0
BITMAP
0001F800
000FC000
001F0000
00000000
00000000
FFF0FFF0
0F801F00
0F801F00
0F801F00
0F801F00
0F801F00
0F801F00
0F801F00
0F801F00
0F801F00
0F801F00
0F801F00
07801E00
07C03E00
01FFFC00
ENDCHAR

STARTCHAR Ucircumflex
ENCODING 219
SWIDTH 1131 0
DWIDTH 30 0
BBX 28 20 1 0
BITMAP
003FC000
01F9F800
03F07C00
00000000
00000000
FFF0FFF0
0F801F00
0F801F00
0F801F00
0F801F00
0F801F00
0F801F00
0F801F00
0F801F00
0F801F00
0F801F00
0F801F00
07801E00
07C03E00
01FFFC00
ENDCHAR

STARTCHAR Udieresis
ENCODING 220
SWIDTH 1131 0
DWIDTH 30 0
BBX 28 20 1 0
BITMAP
07C03E00
07C03E00
07C03E00
00000000
00000000
FFF0FFF0
0F801F00
0F801F00
0F801F00
0F801F00
0F801F00
0F801F00
0F801F00
0F801F00
0F801F00
0F801F00
0F801F00
07801E00
07C03E00
01FFFC00
ENDCHAR

STARTCHAR Yacute
ENCODING 221
SWIDTH 1131 0
DWIDTH 30 0
BBX 27 20 1 0
BITMAP
0001FC00
000FC000
001F0000
00000000
00000000
FFE0FFE0
1E001F00
0F803E00
07C07C00
03E0F800
01F0E000
0079C000
003F8000
001F0000
001F0000
001F0000
001F0000
001F0000
001F0000
03FFF800
ENDCHAR

STARTCHAR Thorn
ENCODING 222
SWIDTH 1131 0
DWIDTH 30 0
BBX 26 15 2 0
BITMAP
FFFFF000
03F00000
03F00000
03FFFE00
03F00F00
03F007C0
03F007C0
03F007C0
03F007C0
03F007C0
03F00F00
03FFFE00
03F00000
03F00000
FFFFF000
ENDCHAR

STARTCHAR germandbls
ENCODING 223
SWIDTH 1131 0
DWIDTH 30 0
BBX 27 16 1 0
BITMAP
007FFC00
03E03E00
07C01F00
07C01F00
07C01F00
07C01F00
07C01E00
07C7FE00
07C00780
07C003E0
07C003E0
07C003E0
07C003E0
07C003E0
07C00780
FFC7FF00
ENDCHAR

STARTCHAR agrave
ENCODING 224
SWIDTH 1131 0
DWIDTH 30 0
BBX 24 18 4 0
BITMAP
1FC000
03F800
007C00
000000
000000
000000
3FFFC0
FC01F0
0000F0
0000F8
1FFFF8
7E01F8
FC00F8
FC00F8
FC00F8
FC01F8
7E07F8
3FFCFF
ENDCHAR

STARTCHAR aacute
ENCODING 225
SWIDTH 1131 0
DWIDTH 30 0
BBX 24 18 4 0
BITMAP
0007F0
003FC0
007C00
000000
000000
000000
3FFFC0
FC01F0
0000F0
0000F8
1FFFF8
7E01F8
FC00F8
FC00F8
FC00F8
FC01F8
7E07F8
3FFCFF
ENDCHAR

STARTCHAR acircumflex
ENCODING 226
SWIDTH 1131 0
DWIDTH 30 0
BBX 24 18 4 0
BITMAP
01FE00
0FCFC0
1F83E0
000000
000000
000000
3FFFC0
FC01F0
0000F0
0000F8
1FFFF8
7E01F8
FC00F8
FC00F8
FC00F8
FC01F8
7E07F8
3FFCFF
ENDCHAR

STARTCHAR atilde
ENCODING 227
SWIDTH 1131 0
DWIDTH 30 0
BBX 24 18 4 0
BITMAP
03F1E0
1FFFE0
1E3F00
000000
000000
000000
3FFFC0
FC01F0
0000F0
0000F8
1FFFF8
7E01F8
FC00F8
FC00F8
FC00F8
FC01F8
7E07F8
3FFCFF
ENDCHAR

STARTCHAR adieresis
ENCODING 228
SWIDTH 1131 0
DWIDTH 30 0
BBX 24 18 4 0
BITMAP
1F03E0
1F03E0
1F03E0
000000
000000
000000
3FFFC0
FC01F0
0000F0
0000F8
1FFFF8
7E01F8
FC00F8
FC00F8
FC00F8
FC01F8
7E07F8
3FFCFF
ENDCHAR

STARTCHAR aring
ENCODING 229
SWIDTH 1131 0
DWIDTH 30 0
BBX 24 20 4 0
BITMAP
01FC00
038E00
0F0700
0F0700
038E00
01FC00
000000
000000
3FFFC0
FC01F0
0000F0
0000F8
1FFFF8
7E01F8
FC00F8
FC00F8
FC00F8
FC01F8
7E07F8
3FFCFF
ENDCHAR

STARTCHAR ae
ENCODING 230
SWIDTH 1131 0
DWIDTH 30 0
BBX 28 12 1 0
BITMAP
1FFE7F80
F81FC3E0
000F81F0
000F81F0
000F81F0
1FFFFFF0
7C0F8000
F80F8000
F80F8000
F80F80F0
7C1FC0F0
1FF1FF80
ENDCHAR

STARTCHAR ccedilla
ENCODING 231
SWIDTH 1131 0
DWIDTH 30 0
BBX 22 17 4 -5
BITMAP
03FFCC
1F01FC
7C001C
7C000C
F0000C
F00000
F00000
F00000
7C000C
7C0018
3F00F8
03FFE0
007800
007FE0
0000F8
0F80F8
01FFF0
ENDCHAR

STARTCHAR egrave
ENCODING 232
SWIDTH 1131 0
DWIDTH 30 0
BBX 26 18 2 0
BITMAP
03FC0000
007F0000
000F8000
00000000
00000000
00000000
03FFF800
0F807E00
3C000F00
3C000F00
F80007C0
FFFFFFC0
F8000000
F8000000
3C000000
3C0007C0
1F800FC0
03FFFC00
ENDCHAR

STARTCHAR eacute
ENCODING 233
SWIDTH 1131 0
DWIDTH 30 0
BBX 26 18 2 0
BITMAP
0001FC00
000FC000
001F0000
00000000
00000000
00000000
03FFF800
0F807E00
3C000F00
3C000F00
F80007C0
FFFFFFC0
F8000000
F8000000
3C000000
3C0007C0
1F800FC0
03FFFC00
ENDCHAR

STARTCHAR ecircumflex
ENCODING 234
SWIDTH 1131 0
DWIDTH 30 0
BBX 26 18 2 0
BITMAP
007F8000
03F3F000
07E0F800
00000000
00000000
00000000
03FFF800
0F807E00
3C000F00
3C000F00
F80007C0
FFFFFFC0
F8000000
F8000000
3C000000
3C0007C0
1F800FC0
03FFFC00
ENDCHAR

STARTCHAR edieresis
ENCODING 235
SWIDTH 1131 0
DWIDTH 30 0
BBX 26 18 2 0
BITMAP
0F80F800
0F80F800
0F80F800
00000000
00000000
00000000
03FFF800
0F807E00
3C000F00
3C000F00
F80007C0
FFFFFFC0
F8000000
F8000000
3C000000
3C0007C0
1F800FC0
03FFFC00
ENDCHAR

STARTCHAR igrave
ENCODING 236
SWIDTH 1131 0
DWIDTH 30 0
BBX 21 18 5 0
BITMAP
3F8000
07F000
00F800
000000
000000
000000
3FF800
00F800
00F800
00F800
00F800
00F800
00F800
00F800
00F800
00F800
00F800
FFFFF8
ENDCHAR

STARTCHAR iacute
ENCODING 237
SWIDTH 1131 0
DWIDTH 30 0
BBX 21 18 5 0
BITMAP
007F80
01F800
03E000
000000
000000
000000
3FF800
00F800
00F800
00F800
00F800
00F800
00F800
00F800
00F800
00F800
00F800
FFFFF8
ENDCHAR

STARTCHAR icircumflex
ENCODING 238
SWIDTH 1131 0
DWIDTH 30 0
BBX 21 18 5 0
BITMAP
03FC00
1F9F80
3F07C0
000000
000000
000000
3FF800
00F800
00F800
00F800
00F800
00F800
00F800
00F800
00F800
00F800
00F800
FFFFF8
ENDCHAR

STARTCHAR idieresis
ENCODING 239
SWIDTH 1131 0
DWIDTH 30 0
BBX 21 18 5 0
BITMAP
7E07E0
7E07E0
7E07E0
000000
000000
000000
3FF800
00F800
00F800
00F800
00F800
00F800
00F800
00F800
00F800
00F800
00F800
FFFFF8
ENDCHAR

STARTCHAR eth
ENCODING 240
SWIDTH 1131 0
DWIDTH 30 0
BBX 22 18 4 0
BITMAP
0FF838
0FFFF8
003FC0
01FFE0
01C1F0
0000F0
03FFF8
1F03F8
7C00FC
7C00FC
F0003C
F0003C
F0003C
F0003C
7C00F8
7C00F8
3F03F0
03FF00
ENDCHAR

STARTCHAR ntilde
ENCODING 241
SWIDTH 1131 0
DWIDTH 30 0
BBX 26 18 2 0
BITMAP
00FC7800
07FFF800
078FC000
00000000
00000000
00000000
FF9FF000
0FF0F800
0FC07C00
0F807C00
0F807C00
0F807C00
0F807C00
0F807C00
0F807C00
0F807C00
0F807C00
FFF1FFC0
ENDCHAR

STARTCHAR ograve
ENCODING 242
SWIDTH 1131 0
DWIDTH 30 0
BBX 22 18 4 0
BITMAP
1FC000
03F800
007C00
000000
000000
000000
03FF00
1F03E0
7C00F8
7C00F8
F0003C
F0003C
F0003C
F0003C
7C00F8
7C00F8
3F03F0
03FF00
ENDCHAR

STARTCHAR oacute
ENCODING 243
SWIDTH 1131 0
DWIDTH 30 0
BBX 22 18 4 0
BITMAP
0007F0
003FC0
007C00
000000
000000
000000
03FF00
1F03E0
7C00F8
7C00F8
F0003C
F0003C
F0003C
F0003C
7C00F8
7C00F8
3F03F0
03FF00
ENDCHAR

STARTCHAR ocircumflex
ENCODING 244
SWIDTH 1131 0
DWIDTH 30 0
BBX 22 18 4 0
BITMAP
01FE00
0FCFC0
1F83E0
000000
000000
000000
03FF00
1F03E0
7C00F8
7C00F8
F0003C
F0003C
F0003C
F0003C
7C00F8
7C00F8
3F03F0
03FF00
ENDCHAR

STARTCHAR otilde
ENCODING 245
SWIDTH 1131 0
DWIDTH 30 0
BBX 22 18 4 0
BITMAP
03F1E0
1FFFE0
1E3F00
000000
000000
000000
03FF00
1F03E0
7C00F8
7C00F8
F0003C
F0003C
F0003C
F0003C
7C00F8
7C00F8
3F03F0
03FF00
ENDCHAR

STARTCHAR odieresis
ENCODING 246
SWIDTH 1131 0
DWIDTH 30 0
BBX 22 18 4 0
BITMAP
1F03E0
1F03E0
1F03E0
000000
000000
000000
03FF00
1F03E0
7C00F8
7C00F8
F0003C
F0003C
F0003C
F0003C
7C00F8
7C00F8
3F03F0
03FF00
ENDCHAR

STARTCHAR divide
ENCODING 247
SWIDTH 1131 0
DWIDTH 30 0
BBX 22 12 4 1
BITMAP
00FC00
00FC00
00FC00
000000
000000
FFFFFC
FFFFFC
000000
000000
00FC00
00FC00
00FC00
ENDCHAR

STARTCHAR oslash
ENCODING 248
SWIDTH 1131 0
DWIDTH 30 0
BBX 22 14 4 -1
BITMAP
00001C
03FF38
1F03E0
7C03F8
7C07F8
F00E3C
F03C3C
F0F83C
F1C03C
7F80F8
7F00F8
1F03F0
73FF00
E00000
ENDCHAR

STARTCHAR ugrave
ENCODING 249
SWIDTH 1131 0
DWIDTH 30 0
BBX 26 18 2 0
BITMAP
07F00000
007E0000
001F0000
00000000
00000000
00000000
FF81FC00
0F807C00
0F807C00
0F807C00
0F807C00
0F807C00
0F807C00
0F807C00
0F807C00
0F80FC00
07C3FC00
03FE7FC0
ENDCHAR

STARTCHAR uacute
ENCODING 250
SWIDTH 1131 0
DWIDTH 30 0
BBX 26 18 2 0
BITMAP
0003F800
001FC000
003E0000
00000000
00000000
00000000
FF81FC00
0F807C00
0F807C00
0F807C00
0F807C00
0F807C00
0F807C00
0F807C00
0F807C00
0F80FC00
07C3FC00
03FE7FC0
ENDCHAR

STARTCHAR ucircumflex
ENCODING 251
SWIDTH 1131 0
DWIDTH 30 0
BBX 26 18 2 0
BITMAP
007F8000
03F3F000
07E0F800
00000000
00000000
00000000
FF81FC00
0F807C00
0F807C00
0F807C00
0F807C00
0F807C00
0F807C00
0F807C00
0F807C00
0F80FC00
07C3FC00
03FE7FC0
ENDCHAR

STARTCHAR udieresis
ENCODING 252
SWIDTH 1131 0
DWIDTH 30 0
BBX 26 18 2 0
BITMAP
0F80F800
0F80F800
0F80F800
00000000
00000000
00000000
FF81FC00
0F807C00
0F807C00
0F807C00
0F807C00
0F807C00
0F807C00
0F807C00
0F807C00
0F80FC00
07C3FC00
03FE7FC0
ENDCHAR

STARTCHAR yacute
ENCODING 253
SWIDTH 1131 0
DWIDTH 30 0
BBX 28 22 1 -4
BITMAP
0001FC00
000FC000
001F0000
00000000
00000000
00000000
FFE07FF0
1F801F00
0FC01E00
07C03E00
03E03C00
03E07800
01F0E000
0078E000
003FC000
003F8000
001F0000
001F0000
001E0000
001E0000
003E0000
07FF8000
ENDCHAR

STARTCHAR thorn
ENCODING 254
SWIDTH 1131 0
DWIDTH 30 0
BBX 26 20 2 -4
BITMAP
FF800000
0F800000
0F800000
0F800000
0F9FFC00
0FF07F00
0FC00F00
0F8007C0
0F8007C0
0F8007C0
0F8007C0
0F8007C0
0F8007C0
0FC00F00
0FF07F00
0F9FFC00
0F800000
0F800000
0F800000
FFFE0000
ENDCHAR

STARTCHAR ydieresis
ENCODING 255
SWIDTH 1131 0
DWIDTH 30 0
BBX 28 22 1 -4
BITMAP
07C07C00
07C07C00
07C07C00
00000000
00000000
00000000
FFE07FF0
1F801F00
0FC01E00
07C03E00
03E03C00
03E07800
01F0E000
0078E000
007FC000
003F8000
001F0000
001F0000
001E0000
001E0000
003E0000
07FF8000
ENDCHAR
ENDFONT
